<svg xmlns="http://www.w3.org/2000/svg" xmlns:xlink="http://www.w3.org/1999/xlink" height="20" style="" version="1.1" width="28" xml:space="preserve"><rect id="backgroundrect" width="100%" height="100%" x="0" y="0" fill="none" stroke="none"/><g class="currentLayer" style=""><title>Layer 1</title><path d="M2,4 h24 c1.104,0 2,-0.8960000000000004 2,-2 s-0.8960000000000004,-2 -2,-2 H2 C0.8960000000000001,0 0,0.8960000000000001 0,2 S0.8960000000000001,4 2,4 zM26,8 H2 c-1.104,0 -2,0.8960000000000004 -2,2 s0.8960000000000004,2 2,2 h24 c1.104,0 2,-0.8960000000000004 2,-2 S27.104,8 26,8 zM26,16 H2 c-1.104,0 -2,0.8960000000000004 -2,2 s0.8960000000000004,2 2,2 h24 c1.104,0 2,-0.8960000000000004 2,-2 S27.104,16 26,16 z" id="svg_1" class="selected" fill="#000000" fill-opacity="1"/></g></svg>