<svg xmlns="http://www.w3.org/2000/svg" xmlns:xlink="http://www.w3.org/1999/xlink" version="1.1" style="enable-background:new 0 0 480 480;" xml:space="preserve" width="480" height="480"><rect id="backgroundrect" width="100%" height="100%" x="0" y="0" fill="none" stroke="none"/>
















<g class="currentLayer" style=""><title>Layer 1</title><g id="svg_1" class="selected" fill="#ffffff" fill-opacity="1">
	<g id="svg_2" fill="#ffffff" fill-opacity="1">
		<path d="M386.848,323.52l-70.016-14.048c-7.424-1.504-12.832-8.096-12.832-15.68V275.52c69.92-6.656,80-20.96,80-35.52    c0-43.04-28.608-142.976-33.344-159.232c-0.576-25.12-5.184-39.264-16.672-51.616c-8.128-8.8-20.064-10.848-29.696-12.48    c-3.776-0.672-8.992-1.536-10.912-2.592C276.32,4.832,259.456,0.384,239.328,0c-42.144,1.728-93.952,28.544-111.68,77.568    C126.368,82.144,96,190.368,96,240c0,20.704,23.424,31.616,80,36.608v17.184c0,7.584-5.408,14.176-12.864,15.68l-69.92,14.016    C48.48,332.288,16,371.872,16,417.6V448c0,17.632,14.368,32,32,32h384c17.632,0,32-14.368,32-32v-30.4    C464,371.872,431.52,332.288,386.848,323.52z" id="svg_3" fill="#ffffff" fill-opacity="1"/>
	</g>
</g><g id="svg_4">
</g><g id="svg_5">
</g><g id="svg_6">
</g><g id="svg_7">
</g><g id="svg_8">
</g><g id="svg_9">
</g><g id="svg_10">
</g><g id="svg_11">
</g><g id="svg_12">
</g><g id="svg_13">
</g><g id="svg_14">
</g><g id="svg_15">
</g><g id="svg_16">
</g><g id="svg_17">
</g><g id="svg_18">
</g></g></svg>