<?xml version="1.0" encoding="UTF-8"?>
<svg xmlns="http://www.w3.org/2000/svg" xmlns:xlink="http://www.w3.org/1999/xlink" width="50pt" height="50pt" viewBox="0 0 50 50" version="1.1">
<g id="surface26436078">
<path style=" stroke:none;fill-rule:nonzero;fill:rgb(100%,100%,100%);fill-opacity:1;" d="M 41 4 L 9 4 C 6.238281 4 4 6.238281 4 9 L 4 41 C 4 43.761719 6.238281 46 9 46 L 41 46 C 43.761719 46 46 43.761719 46 41 L 46 9 C 46 6.238281 43.761719 4 41 4 Z M 42 17.558594 C 42 17.738281 41.820312 17.910156 41.640625 17.910156 L 39.578125 17.910156 L 30.371094 36.828125 C 30.28125 36.910156 30.191406 37 30.011719 37 C 29.828125 37 29.738281 36.910156 29.648438 36.828125 L 25.269531 28.289062 L 20.53125 36.828125 C 20.441406 36.910156 20.351562 37 20.171875 37 C 19.988281 37 19.898438 36.910156 19.808594 36.828125 L 10.511719 18 L 8.359375 18 C 8.179688 18 8 17.828125 8 17.648438 L 8 16.351562 C 8 16.171875 8.179688 16 8.359375 16 L 15.640625 16 C 15.820312 16 16 16.171875 16 16.351562 L 16 17.648438 C 16 17.828125 15.820312 18 15.640625 18 L 14.261719 18 L 20.710938 32.121094 L 24.109375 26.019531 L 19.808594 18 L 18.378906 18 C 18.199219 18 18.019531 17.828125 18.019531 17.648438 L 18.019531 16.351562 C 18.019531 16.171875 18.199219 16 18.378906 16 L 24.640625 16 C 24.820312 16 25 16.171875 25 16.351562 L 25 17.648438 C 25 17.828125 24.820312 18 24.640625 18 L 23.390625 18 L 25.808594 22.878906 L 28.761719 18 L 27.359375 18 C 27.179688 18 27 17.828125 27 17.648438 L 27 16.351562 C 27 16.171875 27.179688 16 27.359375 16 L 32.640625 16 C 32.820312 16 33 16.171875 33 16.351562 L 33 17.648438 C 33 17.828125 32.820312 18 32.640625 18 L 31.261719 18 L 26.96875 25.148438 L 30.460938 32.121094 L 37.171875 18 L 35.359375 18 C 35.179688 18 35 17.828125 35 17.648438 L 35 16.351562 C 35 16.171875 35.179688 16 35.359375 16 L 41.640625 16 C 41.820312 16 42 16.171875 42 16.351562 Z M 42 17.558594 "/>
</g>
</svg>
